<?xml version="1.0" encoding="UTF-8"?>
<!-- Generator: Adobe Illustrator 21.0.1, SVG Export Plug-In . SVG Version: 6.00 Build 0)  -->
<svg version="1.1" id="Layer_1" xmlns="http://www.w3.org/2000/svg" xmlns:xlink="http://www.w3.org/1999/xlink" x="0px" y="0px" viewBox="0 0 70 36" style="enable-background:new 0 0 70 36;" xml:space="preserve">
<style type="text/css">
	.st0{fill:#FFFFFF;}
	.st1{fill-rule:evenodd;clip-rule:evenodd;fill:#717272;}
	.st2{fill-rule:evenodd;clip-rule:evenodd;fill:#C25D28;}
	.st3{clip-path:url(#SVGID_2_);}
	.st4{fill:#2D2A2D;}
	.st5{fill:#8F2A2F;}
</style>
<g>
	<g>
		<path class="st0" d="M23,28.8h-1.2V16.3H23V28.8z"/>
		<path class="st0" d="M29.9,17.3v11.4h-1.2V17.3h-3.6v-1.1h8.4v1.1H29.9z"/>
		<path class="st0" d="M40.2,28.8H39l-4.5-12.5h1.3l3.5,10c0.1,0.2,0.1,0.4,0.2,0.6c0,0.2,0.1,0.4,0.1,0.6h0c0-0.2,0.1-0.3,0.1-0.5    c0.1-0.2,0.1-0.4,0.2-0.6l3.7-10h1.3L40.2,28.8z"/>
		<path class="st0" d="M46.8,28.8V16.3h3.3c2.1,0,3.7,0.5,4.8,1.5c1.1,1,1.6,2.5,1.6,4.5c0,1-0.2,1.8-0.5,2.6    c-0.3,0.8-0.7,1.5-1.3,2c-0.6,0.6-1.3,1-2.1,1.3c-0.8,0.3-1.7,0.5-2.8,0.5H46.8z M47.9,17.3v10.4h1.9c0.9,0,1.6-0.1,2.3-0.3    c0.7-0.2,1.2-0.6,1.7-1c0.5-0.4,0.8-1,1.1-1.7c0.2-0.7,0.4-1.4,0.4-2.3c0-3.4-1.8-5-5.3-5H47.9z"/>
		<path class="st0" d="M67.6,28.8l-6.9-10c-0.1-0.1-0.2-0.3-0.3-0.4c-0.1-0.1-0.2-0.3-0.2-0.4h0c0,0.1,0,0.2,0,0.4    c0,0.2,0,0.4,0,0.7v9.7H59V16.3h1.3l6.8,9.9c0.1,0.2,0.2,0.3,0.3,0.4c0.1,0.1,0.2,0.3,0.2,0.4h0c0-0.2,0-0.4-0.1-0.6    c0-0.2,0-0.5,0-0.8v-9.3h1.2v12.5H67.6z"/>
	</g>
	<g>
		<path class="st0" d="M22.1,33.3h-0.2V31h0.2V33.3z"/>
		<path class="st0" d="M23.3,31.2v2.2h-0.2v-2.2h-0.7V31H24v0.2H23.3z"/>
		<path class="st0" d="M26,33.3h-0.2L24.9,31h0.2l0.7,1.9c0,0,0,0.1,0,0.1c0,0,0,0.1,0,0.1h0c0,0,0-0.1,0-0.1c0,0,0-0.1,0-0.1    l0.7-1.9h0.2L26,33.3z"/>
		<path class="st0" d="M27.4,33.3h-0.2V31h0.2V33.3z"/>
		<path class="st0" d="M27.9,33.3V31h0.6c0.4,0,0.7,0.1,0.9,0.3c0.2,0.2,0.3,0.5,0.3,0.9c0,0.2,0,0.3-0.1,0.5    c-0.1,0.1-0.1,0.3-0.3,0.4c-0.1,0.1-0.2,0.2-0.4,0.2c-0.2,0.1-0.3,0.1-0.5,0.1H27.9z M28.1,31.2v2h0.4c0.2,0,0.3,0,0.4-0.1    c0.1,0,0.2-0.1,0.3-0.2c0.1-0.1,0.2-0.2,0.2-0.3c0-0.1,0.1-0.3,0.1-0.4c0-0.6-0.3-1-1-1H28.1z"/>
		<path class="st0" d="M30.1,33.3V31h1.2v0.2h-0.9V32h0.9v0.2h-0.9v0.9h1v0.2H30.1z"/>
		<path class="st0" d="M32.7,33.4c-0.2,0-0.3,0-0.5-0.1c-0.1-0.1-0.3-0.1-0.3-0.3c-0.1-0.1-0.2-0.2-0.2-0.4    c-0.1-0.1-0.1-0.3-0.1-0.5c0-0.2,0-0.4,0.1-0.5c0.1-0.2,0.1-0.3,0.2-0.4c0.1-0.1,0.2-0.2,0.4-0.3c0.1-0.1,0.3-0.1,0.5-0.1    c0.2,0,0.3,0,0.5,0.1c0.1,0.1,0.2,0.1,0.3,0.2c0.1,0.1,0.2,0.2,0.2,0.4c0.1,0.1,0.1,0.3,0.1,0.5c0,0.2,0,0.3-0.1,0.5    c0,0.2-0.1,0.3-0.2,0.4c-0.1,0.1-0.2,0.2-0.4,0.3C33.1,33.3,32.9,33.4,32.7,33.4z M32.7,31.1c-0.1,0-0.3,0-0.4,0.1    c-0.1,0.1-0.2,0.1-0.3,0.2c-0.1,0.1-0.1,0.2-0.2,0.3c0,0.1-0.1,0.3-0.1,0.4c0,0.1,0,0.3,0.1,0.4c0,0.1,0.1,0.2,0.2,0.3    c0.1,0.1,0.2,0.2,0.3,0.2c0.1,0.1,0.2,0.1,0.4,0.1c0.1,0,0.3,0,0.4-0.1c0.1-0.1,0.2-0.1,0.3-0.2c0.1-0.1,0.1-0.2,0.2-0.3    c0-0.1,0.1-0.3,0.1-0.4c0-0.1,0-0.3-0.1-0.4c0-0.1-0.1-0.2-0.2-0.3c-0.1-0.1-0.2-0.2-0.3-0.2C33,31.1,32.9,31.1,32.7,31.1z"/>
		<path class="st0" d="M35.1,33.3V31h0.6c0.4,0,0.7,0.1,0.9,0.3c0.2,0.2,0.3,0.5,0.3,0.9c0,0.2,0,0.3-0.1,0.5    c-0.1,0.1-0.1,0.3-0.3,0.4c-0.1,0.1-0.2,0.2-0.4,0.2s-0.3,0.1-0.5,0.1H35.1z M35.3,31.2v2h0.4c0.2,0,0.3,0,0.4-0.1    c0.1,0,0.2-0.1,0.3-0.2c0.1-0.1,0.2-0.2,0.2-0.3c0-0.1,0.1-0.3,0.1-0.4c0-0.6-0.3-1-1-1H35.3z"/>
		<path class="st0" d="M37.3,33.3V31h1.2v0.2h-0.9V32h0.9v0.2h-0.9v0.9h1v0.2H37.3z"/>
		<path class="st0" d="M39.8,33.3h-0.2L38.7,31h0.2l0.7,1.9c0,0,0,0.1,0,0.1c0,0,0,0.1,0,0.1h0c0,0,0-0.1,0-0.1c0,0,0-0.1,0-0.1    l0.7-1.9h0.2L39.8,33.3z"/>
		<path class="st0" d="M40.9,33.3V31h1.2v0.2h-0.9V32H42v0.2h-0.9v0.9h1v0.2H40.9z"/>
		<path class="st0" d="M42.6,33.3V31h0.2v2.2h1v0.2H42.6z"/>
		<path class="st0" d="M44.9,33.4c-0.2,0-0.3,0-0.5-0.1c-0.1-0.1-0.3-0.1-0.3-0.3c-0.1-0.1-0.2-0.2-0.2-0.4    c-0.1-0.1-0.1-0.3-0.1-0.5c0-0.2,0-0.4,0.1-0.5c0.1-0.2,0.1-0.3,0.2-0.4c0.1-0.1,0.2-0.2,0.4-0.3c0.1-0.1,0.3-0.1,0.5-0.1    c0.2,0,0.3,0,0.5,0.1c0.1,0.1,0.2,0.1,0.3,0.2c0.1,0.1,0.2,0.2,0.2,0.4c0.1,0.1,0.1,0.3,0.1,0.5c0,0.2,0,0.3-0.1,0.5    c0,0.2-0.1,0.3-0.2,0.4c-0.1,0.1-0.2,0.2-0.4,0.3C45.2,33.3,45.1,33.4,44.9,33.4z M44.9,31.1c-0.1,0-0.3,0-0.4,0.1    c-0.1,0.1-0.2,0.1-0.3,0.2c-0.1,0.1-0.1,0.2-0.2,0.3c0,0.1-0.1,0.3-0.1,0.4c0,0.1,0,0.3,0.1,0.4c0,0.1,0.1,0.2,0.2,0.3    c0.1,0.1,0.2,0.2,0.3,0.2c0.1,0.1,0.2,0.1,0.4,0.1c0.1,0,0.3,0,0.4-0.1c0.1-0.1,0.2-0.1,0.3-0.2c0.1-0.1,0.1-0.2,0.2-0.3    c0-0.1,0.1-0.3,0.1-0.4c0-0.1,0-0.3-0.1-0.4c0-0.1-0.1-0.2-0.2-0.3c-0.1-0.1-0.2-0.2-0.3-0.2C45.2,31.1,45.1,31.1,44.9,31.1z"/>
		<path class="st0" d="M46.6,32.4v0.9h-0.2V31H47c0.1,0,0.2,0,0.3,0c0.1,0,0.2,0.1,0.2,0.1c0.1,0.1,0.1,0.1,0.2,0.2    c0,0.1,0.1,0.2,0.1,0.3c0,0.1,0,0.2-0.1,0.3c0,0.1-0.1,0.2-0.2,0.2c-0.1,0.1-0.2,0.1-0.3,0.2c-0.1,0-0.2,0.1-0.4,0.1H46.6z     M46.6,31.2v1h0.3c0.2,0,0.4,0,0.5-0.1c0.1-0.1,0.2-0.2,0.2-0.4c0-0.3-0.2-0.5-0.6-0.5H46.6z"/>
		<path class="st0" d="M48.2,33.3V31h1.2v0.2h-0.9V32h0.9v0.2h-0.9v0.9h1v0.2H48.2z"/>
		<path class="st0" d="M51.1,33.3l-0.4-0.7c0-0.1-0.1-0.1-0.1-0.2c0,0-0.1-0.1-0.1-0.1c0,0-0.1,0-0.1-0.1c0,0-0.1,0-0.1,0H50v1h-0.2    V31h0.7c0.1,0,0.2,0,0.3,0c0.1,0,0.2,0.1,0.2,0.1c0.1,0.1,0.1,0.1,0.2,0.2c0,0.1,0.1,0.2,0.1,0.3c0,0.1,0,0.2,0,0.2    c0,0.1-0.1,0.1-0.1,0.2c0,0.1-0.1,0.1-0.2,0.1c-0.1,0-0.1,0.1-0.2,0.1v0c0,0,0.1,0,0.1,0.1c0,0,0.1,0,0.1,0.1c0,0,0,0.1,0.1,0.1    c0,0,0,0.1,0.1,0.1l0.4,0.7H51.1z M50,31.2v0.9h0.4c0.1,0,0.2,0,0.2,0c0.1,0,0.1-0.1,0.2-0.1c0,0,0.1-0.1,0.1-0.2    c0-0.1,0-0.1,0-0.2c0-0.1,0-0.2-0.1-0.3c-0.1-0.1-0.2-0.1-0.4-0.1H50z"/>
		<path class="st0" d="M51.6,33c0,0,0.1,0.1,0.1,0.1c0,0,0.1,0,0.1,0.1c0.1,0,0.1,0,0.2,0c0.1,0,0.1,0,0.1,0c0.2,0,0.3,0,0.4-0.1    s0.1-0.2,0.1-0.3c0-0.1,0-0.1,0-0.2c0,0-0.1-0.1-0.1-0.1c0,0-0.1-0.1-0.2-0.1c-0.1,0-0.1-0.1-0.2-0.1c-0.1-0.1-0.2-0.1-0.3-0.2    c-0.1,0-0.1-0.1-0.2-0.2c0-0.1-0.1-0.1-0.1-0.2c0-0.1,0-0.1,0-0.2c0-0.1,0-0.2,0.1-0.3c0-0.1,0.1-0.1,0.2-0.2    C51.9,31,52,31,52.1,31c0.1,0,0.2,0,0.3,0c0.2,0,0.3,0,0.5,0.1v0.2c-0.1-0.1-0.3-0.1-0.5-0.1c-0.1,0-0.1,0-0.2,0    c-0.1,0-0.1,0-0.2,0.1c0,0-0.1,0.1-0.1,0.1c0,0,0,0.1,0,0.2c0,0.1,0,0.1,0,0.2c0,0,0,0.1,0.1,0.1c0,0,0.1,0.1,0.2,0.1    c0.1,0,0.1,0.1,0.2,0.1c0.1,0.1,0.2,0.1,0.3,0.2c0.1,0.1,0.1,0.1,0.2,0.2c0,0.1,0.1,0.1,0.1,0.2s0,0.1,0,0.2c0,0.1,0,0.2-0.1,0.3    c0,0.1-0.1,0.1-0.2,0.2c-0.1,0.1-0.2,0.1-0.2,0.1c-0.1,0-0.2,0-0.3,0c0,0-0.1,0-0.1,0c-0.1,0-0.1,0-0.2,0c-0.1,0-0.1,0-0.2,0    c0,0-0.1,0-0.1-0.1V33z"/>
		<path class="st0" d="M55.8,33.3l-1.3-1.9c0,0,0,0,0-0.1c0,0,0-0.1,0-0.1h0c0,0,0,0,0,0.1c0,0,0,0.1,0,0.1v1.8h-0.2V31h0.2l1.3,1.9    c0,0,0,0.1,0.1,0.1c0,0,0,0,0,0.1h0c0,0,0-0.1,0-0.1c0,0,0-0.1,0-0.2V31H56v2.4H55.8z"/>
		<path class="st0" d="M56.6,33.3V31h1.2v0.2h-0.9V32h0.9v0.2h-0.9v0.9h1v0.2H56.6z"/>
		<path class="st0" d="M58.9,31.2v2.2h-0.2v-2.2H58V31h1.6v0.2H58.9z"/>
		<path class="st0" d="M62,33.3h-0.2l-0.5-1.8c0,0,0-0.1,0-0.1c0,0,0-0.1,0-0.1h0c0,0.1,0,0.1,0,0.2l-0.5,1.8h-0.2L59.7,31h0.2    l0.5,1.9c0,0,0,0.1,0,0.1c0,0,0,0.1,0,0.1h0c0,0,0-0.1,0.1-0.2l0.6-1.9h0.2l0.5,1.9c0,0,0,0.1,0,0.1c0,0,0,0.1,0,0.1h0    c0,0,0,0,0-0.1c0,0,0-0.1,0-0.1l0.5-1.9h0.2L62,33.3z"/>
		<path class="st0" d="M63.9,33.4c-0.2,0-0.3,0-0.5-0.1c-0.1-0.1-0.3-0.1-0.3-0.3c-0.1-0.1-0.2-0.2-0.2-0.4    c-0.1-0.1-0.1-0.3-0.1-0.5c0-0.2,0-0.4,0.1-0.5c0.1-0.2,0.1-0.3,0.2-0.4c0.1-0.1,0.2-0.2,0.4-0.3c0.1-0.1,0.3-0.1,0.5-0.1    c0.2,0,0.3,0,0.5,0.1c0.1,0.1,0.2,0.1,0.3,0.2c0.1,0.1,0.2,0.2,0.2,0.4c0.1,0.1,0.1,0.3,0.1,0.5c0,0.2,0,0.3-0.1,0.5    c0,0.2-0.1,0.3-0.2,0.4c-0.1,0.1-0.2,0.2-0.4,0.3C64.2,33.3,64.1,33.4,63.9,33.4z M63.9,31.1c-0.1,0-0.3,0-0.4,0.1    c-0.1,0.1-0.2,0.1-0.3,0.2c-0.1,0.1-0.1,0.2-0.2,0.3c0,0.1-0.1,0.3-0.1,0.4c0,0.1,0,0.3,0.1,0.4c0,0.1,0.1,0.2,0.2,0.3    c0.1,0.1,0.2,0.2,0.3,0.2c0.1,0.1,0.2,0.1,0.4,0.1c0.1,0,0.3,0,0.4-0.1c0.1-0.1,0.2-0.1,0.3-0.2c0.1-0.1,0.1-0.2,0.2-0.3    c0-0.1,0.1-0.3,0.1-0.4c0-0.1,0-0.3-0.1-0.4c0-0.1-0.1-0.2-0.2-0.3c-0.1-0.1-0.2-0.2-0.3-0.2C64.2,31.1,64.1,31.1,63.9,31.1z"/>
		<path class="st0" d="M66.7,33.3l-0.4-0.7c0-0.1-0.1-0.1-0.1-0.2c0,0-0.1-0.1-0.1-0.1c0,0-0.1,0-0.1-0.1c0,0-0.1,0-0.1,0h-0.3v1    h-0.2V31h0.7c0.1,0,0.2,0,0.3,0c0.1,0,0.2,0.1,0.2,0.1c0.1,0.1,0.1,0.1,0.2,0.2c0,0.1,0.1,0.2,0.1,0.3c0,0.1,0,0.2,0,0.2    c0,0.1-0.1,0.1-0.1,0.2c0,0.1-0.1,0.1-0.2,0.1c-0.1,0-0.1,0.1-0.2,0.1v0c0,0,0.1,0,0.1,0.1c0,0,0.1,0,0.1,0.1c0,0,0,0.1,0.1,0.1    c0,0,0,0.1,0.1,0.1l0.4,0.7H66.7z M65.6,31.2v0.9H66c0.1,0,0.2,0,0.2,0c0.1,0,0.1-0.1,0.2-0.1c0,0,0.1-0.1,0.1-0.2s0-0.1,0-0.2    c0-0.1,0-0.2-0.1-0.3c-0.1-0.1-0.2-0.1-0.4-0.1H65.6z"/>
		<path class="st0" d="M68.5,33.3l-1-1.1c0,0,0-0.1-0.1-0.1h0v1.2h-0.2V31h0.2v1.1h0c0,0,0,0,0,0c0,0,0,0,0,0l0.9-1h0.3l-1,1.1    l1.1,1.2H68.5z"/>
	</g>
	<polygon class="st1" points="8.2,26.3 -0.1,34.8 -0.1,18.1 8.2,9.6  "/>
	<polygon class="st2" points="17.8,16.7 9.4,25.2 9.4,8.4 17.8,0  "/>
	<g>
		<g>
			<defs>
				<rect id="SVGID_1_" x="-0.1" y="2.8" width="17.9" height="18.3"/>
			</defs>
			<clipPath id="SVGID_2_">
				<use xlink:href="#SVGID_1_" style="overflow:visible;"/>
			</clipPath>
			<g class="st3">
				<path class="st4" d="M-0.1,19.8c3-1.3,5.7-2.9,8.4-4.7v-0.3c-2.6,1.9-5.3,3.5-8.4,4.8V19.8z"/>
				<path class="st4" d="M-0.1,19.3c3-1.3,5.7-2.9,8.4-4.8v-0.3c-2.6,1.9-5.3,3.6-8.4,4.9V19.3z"/>
				<path class="st4" d="M-0.1,18.9c3.1-1.3,5.8-3,8.4-5v-0.3c-2.6,2-5.3,3.7-8.4,5V18.9z"/>
				<path class="st4" d="M8.1,11.9c0.1,0,0.1-0.1,0.2-0.2v-0.4c-0.1,0-0.1,0.1-0.2,0.1c-1.8,1.4-3.6,2.6-5.5,3.8l-1.1,1.1      C3.8,15,6,13.6,8.1,11.9"/>
				<path class="st4" d="M7.2,11.9c0.4-0.3,0.7-0.6,1.1-0.9v-0.4c-0.4,0.3-0.7,0.6-1.1,0.9c-0.8,0.6-1.7,1.2-2.6,1.8l-1.1,1.1      C4.8,13.6,6,12.8,7.2,11.9"/>
				<path class="st4" d="M-0.1,21.1c3-0.9,5.8-1.9,8.4-3.1v-0.4c-0.9,0.4-1.7,0.8-2.6,1.2c0.9-0.4,1.7-0.8,2.6-1.2v-0.2      C5.7,18.5,3,19.6,0,20.5c3-1.1,5.7-2.4,8.3-3.8v-0.2c-0.3,0.2-0.6,0.3-0.9,0.5c0.3-0.2,0.6-0.3,0.9-0.5v-0.2      c-1.3,0.8-2.7,1.5-4.1,2.1c1.4-0.7,2.8-1.4,4.1-2.2v-0.2C5.7,17.5,3,18.8-0.1,20V21.1z"/>
			</g>
			<g class="st3">
				<path class="st5" d="M9.4,13.9v0.3c2.7-2,5.4-4.4,8.3-6.9c0,0,0,0,0,0V6.9C17.7,7,17.6,7,17.6,7.1C14.7,9.6,12.1,11.9,9.4,13.9"/>
				<path class="st5" d="M9.4,13.3v0.3c2.6-2,5.2-4.3,8-6.8c0.1-0.1,0.2-0.2,0.3-0.3V6.2c-0.2,0.1-0.3,0.3-0.5,0.4      C14.5,9.1,12,11.4,9.4,13.3"/>
				<path class="st5" d="M9.4,12.7V13c2.6-2.1,5.2-4.5,8.1-7.2c0.1-0.1,0.2-0.2,0.3-0.3V5.2c-0.2,0.1-0.3,0.3-0.5,0.4      C14.5,8.3,12,10.6,9.4,12.7"/>
				<path class="st5" d="M9.4,10.8c2.1-1.7,4-3.6,5.9-5.6c0.2-0.2-0.1-0.4-0.2-0.2c-1.8,1.9-3.7,3.7-5.7,5.4V10.8z"/>
				<path class="st5" d="M13.5,5.4c-1.3,1.4-2.7,2.9-4.1,4.2V10c1.5-1.4,3-2.9,4.4-4.4C13.9,5.5,13.7,5.2,13.5,5.4"/>
				<path class="st5" d="M15.9,4.6c0.6-0.1,1.2-0.2,1.8-0.4V3.8c-0.4,0.1-0.8,0.2-1.3,0.3c-1.1,0.2-2.2,0.4-3.3,0.5L12.8,5      C13.9,4.9,14.9,4.8,15.9,4.6"/>
				<path class="st5" d="M15.8,3.6c0.6-0.1,1.3-0.2,1.9-0.4V2.8c-0.5,0.1-0.9,0.2-1.4,0.3c-0.7,0.1-1.4,0.2-2,0.3L14,3.8      C14.6,3.7,15.2,3.7,15.8,3.6"/>
				<path class="st5" d="M9.4,15.4c2.7-1.8,5.4-3.8,8.4-6.3V8.8c-3,2.5-5.6,4.6-8.4,6.3V15.4z"/>
				<path class="st5" d="M9.4,17.4c2.8-1.4,5.5-3,8.4-4.9v-0.3c-2.8,2-5.5,3.6-8.4,5V17.4z"/>
				<path class="st5" d="M9.4,17.1c2.7-1.4,5.4-3.1,8.4-5.2v-0.2c-2.9,2.1-5.6,3.8-8.4,5.2V17.1z"/>
				<path class="st5" d="M9.4,16.8c2.8-1.5,5.5-3.3,8.4-5.4v-0.3c-2.9,2.1-5.6,3.9-8.4,5.4V16.8z"/>
				<path class="st5" d="M9.4,16c2.8-1.6,5.5-3.5,8.4-5.9V9.9c-2.9,2.3-5.6,4.2-8.4,5.9V16z"/>
				<path class="st5" d="M9.4,15.8c2.7-1.6,5.4-3.6,8.4-6.1V9.4c-3,2.5-5.7,4.4-8.4,6.1V15.8z"/>
			</g>
		</g>
	</g>
</g>
<g>
</g>
<g>
</g>
<g>
</g>
<g>
</g>
<g>
</g>
<g>
</g>
<g>
</g>
<g>
</g>
<g>
</g>
<g>
</g>
<g>
</g>
<g>
</g>
<g>
</g>
<g>
</g>
<g>
</g>
</svg>